<svg width="20" height="18" viewBox="0 0 20 18" fill="none" xmlns="http://www.w3.org/2000/svg">
<path d="M10 0L4.36367 0.592691L0 6.41859L10 18L20 6.41852L15.6364 0.592691L10 0Z" fill="#FDB300"/>
<path d="M0 6.41859L10 18L4.05047 6.41859H0Z" fill="#EB6C00"/>
<path d="M15.9495 6.41859L10 18L20 6.41859H15.9495Z" fill="#EB6C00"/>
<path d="M4.05047 6.41859L10 18L15.9495 6.41859H4.05047Z" fill="#FDAD00"/>
<path d="M4.36367 0.592691L4.05039 6.41859L10 0L4.36367 0.592691Z" fill="#FDD231"/>
<path d="M15.9495 6.41859L15.6363 0.592691L10 0L15.9495 6.41859Z" fill="#FDD231"/>
<path d="M15.9495 6.41859H20L15.6364 0.59269L15.9495 6.41859Z" fill="#FDAD00"/>
<path d="M0 6.41859H4.05047L4.36367 0.59269L0 6.41859Z" fill="#FDAD00"/>
<path d="M10 0L4.05047 6.41851H15.9495L10 0Z" fill="#FEEEB7"/>
</svg>
