<svg width="64" height="62" viewBox="0 0 64 62" fill="none" xmlns="http://www.w3.org/2000/svg">
<path d="M7.58789 38.3613C7.17773 38.5436 6.71061 38.6348 6.18652 38.6348C5.68522 38.6348 5.11556 38.2702 4.47754 37.541C3.8623 36.8118 3.30404 35.9004 2.80273 34.8066C1.70898 32.3457 1.16211 29.9417 1.16211 27.5947C1.16211 26.1136 1.44694 24.9401 2.0166 24.0742C2.0166 24.0742 3.07617 22.9121 5.19531 20.5879C6.19792 19.4486 7.28027 18.446 8.44238 17.5801C21.8864 7.7819 35.5013 2.51823 49.2871 1.78906C51.224 1.67513 52.7279 1.61816 53.7988 1.61816C54.8698 1.61816 55.7357 1.77767 56.3965 2.09668C57.0801 2.3929 57.7295 2.79167 58.3447 3.29297C58.96 3.77148 59.541 4.31836 60.0879 4.93359C60.6348 5.52604 61.1133 6.11849 61.5234 6.71094C62.3893 7.91862 62.8223 8.77311 62.8223 9.27441C62.8223 9.77572 62.7197 10.3682 62.5146 11.0518C62.3096 11.7126 62.0703 12.4417 61.7969 13.2393C61.5234 14.014 61.2272 14.7887 60.9082 15.5635L60.1562 17.5459C56.7611 26.3187 52.7279 34.556 48.0566 42.2578C46.5072 44.8327 45.2083 46.8151 44.1602 48.2051C43.1348 49.6178 42.2689 50.7458 41.5625 51.5889C40.8789 52.432 40.1383 53.2637 39.3408 54.084C38.5433 54.9043 37.6888 55.679 36.7773 56.4082C35.8659 57.1602 34.9316 57.821 33.9746 58.3906C31.8783 59.6211 29.8047 60.2363 27.7539 60.2363C26.3867 60.2363 24.8372 59.5186 23.1055 58.083C21.2826 56.5563 20.3711 55.0068 20.3711 53.4346C20.3711 50.8825 22.8662 47.1569 27.8564 42.2578C30.4769 39.6829 32.8581 37.598 35 36.0029C37.1419 34.3851 38.6914 33.2913 39.6484 32.7217C43.2259 25.9541 45.4248 21.7158 46.2451 20.0068L48.1592 15.9395C49.1162 13.8203 49.5947 12.5557 49.5947 12.1455C49.5947 11.1201 49.0479 10.6074 47.9541 10.6074C46.8604 10.6074 45.459 10.8695 43.75 11.3936C42.041 11.9176 40.2067 12.6354 38.2471 13.5469C36.2874 14.4355 34.248 15.4837 32.1289 16.6914C30.0326 17.8763 27.9704 19.141 25.9424 20.4854C23.9372 21.807 22.0117 23.1742 20.166 24.5869C18.3431 25.9997 16.7253 27.3669 15.3125 28.6885C12.1908 31.5824 10.4818 33.8154 10.1855 35.3877C9.88932 36.8005 9.02344 37.7917 7.58789 38.3613Z" fill="white"/>
<path d="M7.58789 38.3613L7.21905 37.4318L7.20024 37.4393L7.18175 37.4475L7.58789 38.3613ZM4.47754 37.541L3.71325 38.1859L3.71904 38.1928L3.72496 38.1995L4.47754 37.541ZM2.80273 34.8066L1.88886 35.2128L1.89367 35.2233L2.80273 34.8066ZM2.0166 24.0742L1.27765 23.4005L1.22452 23.4587L1.18118 23.5246L2.0166 24.0742ZM5.19531 20.5879L5.93427 21.2616L5.94021 21.2551L5.94603 21.2485L5.19531 20.5879ZM8.44238 17.5801L7.85336 16.7719L7.8449 16.7782L8.44238 17.5801ZM49.2871 1.78906L49.3399 2.78768L49.3458 2.78734L49.2871 1.78906ZM56.3965 2.09668L55.9617 2.99723L55.9801 3.00611L55.9989 3.01424L56.3965 2.09668ZM58.3447 3.29297L57.7131 4.0682L57.7218 4.07536L57.7308 4.08232L58.3447 3.29297ZM60.0879 4.93359L59.3405 5.59796L59.3467 5.60497L59.3531 5.61187L60.0879 4.93359ZM61.5234 6.71094L60.7012 7.28015L60.7059 7.28693L60.7107 7.29363L61.5234 6.71094ZM62.5146 11.0518L63.4698 11.3482L63.4725 11.3391L62.5146 11.0518ZM61.7969 13.2393L62.7399 13.5721L62.7428 13.5636L61.7969 13.2393ZM60.9082 15.5635L59.9835 15.1827L59.9782 15.1957L59.9732 15.2088L60.9082 15.5635ZM60.1562 17.5459L61.0889 17.9068L61.0912 17.9006L60.1562 17.5459ZM48.0566 42.2578L47.2016 41.7392L47.1998 41.7422L48.0566 42.2578ZM44.1602 48.2051L43.3617 47.603L43.3562 47.6103L43.3509 47.6177L44.1602 48.2051ZM41.5625 51.5889L40.796 50.9466L40.7908 50.9528L40.7857 50.9591L41.5625 51.5889ZM36.7773 56.4082L36.1526 55.6273L36.1468 55.632L36.141 55.6368L36.7773 56.4082ZM33.9746 58.3906L34.4808 59.2531L34.4861 59.2499L33.9746 58.3906ZM23.1055 58.083L22.4634 58.8497L22.4673 58.8529L23.1055 58.083ZM27.8564 42.2578L28.557 42.9714L28.5573 42.9711L27.8564 42.2578ZM35 36.0029L35.5973 36.805L35.6027 36.8009L35 36.0029ZM39.6484 32.7217L40.1599 33.581L40.4013 33.4373L40.5325 33.189L39.6484 32.7217ZM46.2451 20.0068L47.1467 20.4396L47.1499 20.4326L46.2451 20.0068ZM48.1592 15.9395L49.064 16.3653L49.0673 16.3582L49.0706 16.351L48.1592 15.9395ZM38.2471 13.5469L38.6601 14.4576L38.6688 14.4536L38.2471 13.5469ZM32.1289 16.6914L32.621 17.562L32.624 17.5602L32.1289 16.6914ZM25.9424 20.4854L26.4927 21.3203L26.4949 21.3188L25.9424 20.4854ZM20.166 24.5869L19.5582 23.7928L19.5534 23.7965L20.166 24.5869ZM15.3125 28.6885L15.9923 29.4218L15.9957 29.4187L15.3125 28.6885ZM10.1855 35.3877L11.1643 35.5929L11.1664 35.5829L11.1683 35.5728L10.1855 35.3877ZM7.18175 37.4475C6.9191 37.5642 6.59393 37.6348 6.18652 37.6348V39.6348C6.8273 39.6348 7.43636 39.523 7.99403 39.2751L7.18175 37.4475ZM6.18652 37.6348C6.14964 37.6348 5.83776 37.577 5.23012 36.8825L3.72496 38.1995C4.39336 38.9634 5.2208 39.6348 6.18652 39.6348V37.6348ZM5.24183 36.8961C4.69784 36.2514 4.18473 35.4218 3.7118 34.39L1.89367 35.2233C2.42334 36.3789 3.02677 37.3723 3.71325 38.1859L5.24183 36.8961ZM3.71655 34.4005C2.67128 32.0487 2.16211 29.7826 2.16211 27.5947H0.162109C0.162109 30.1008 0.746688 32.6428 1.88892 35.2128L3.71655 34.4005ZM2.16211 27.5947C2.16211 26.229 2.42656 25.2705 2.85202 24.6238L1.18118 23.5246C0.46732 24.6097 0.162109 25.9983 0.162109 27.5947H2.16211ZM2.0166 24.0742C2.75556 24.748 2.75556 24.748 2.75557 24.748C2.75558 24.748 2.75559 24.7479 2.75561 24.7479C2.75562 24.7479 2.75564 24.7479 2.75567 24.7479C2.75569 24.7478 2.75572 24.7478 2.75575 24.7478C2.75578 24.7477 2.75582 24.7477 2.75586 24.7476C2.7559 24.7476 2.75595 24.7475 2.75599 24.7475C2.75604 24.7474 2.75609 24.7474 2.75615 24.7473C2.75621 24.7473 2.75627 24.7472 2.75633 24.7471C2.7564 24.7471 2.75647 24.747 2.75654 24.7469C2.75661 24.7468 2.75669 24.7467 2.75677 24.7466C2.75685 24.7466 2.75694 24.7465 2.75702 24.7464C2.75711 24.7463 2.75721 24.7462 2.7573 24.7461C2.7574 24.746 2.7575 24.7458 2.75761 24.7457C2.75771 24.7456 2.75782 24.7455 2.75793 24.7454C2.75805 24.7452 2.75816 24.7451 2.75829 24.745C2.75841 24.7448 2.75853 24.7447 2.75866 24.7446C2.75879 24.7444 2.75892 24.7443 2.75906 24.7441C2.7592 24.744 2.75934 24.7438 2.75949 24.7437C2.75963 24.7435 2.75978 24.7433 2.75993 24.7432C2.76009 24.743 2.76025 24.7428 2.76041 24.7427C2.76057 24.7425 2.76074 24.7423 2.7609 24.7421C2.76107 24.7419 2.76125 24.7417 2.76143 24.7415C2.7616 24.7413 2.76179 24.7411 2.76197 24.7409C2.76216 24.7407 2.76235 24.7405 2.76254 24.7403C2.76274 24.7401 2.76293 24.7399 2.76314 24.7397C2.76334 24.7394 2.76354 24.7392 2.76375 24.739C2.76396 24.7388 2.76418 24.7385 2.7644 24.7383C2.76462 24.738 2.76484 24.7378 2.76506 24.7375C2.76529 24.7373 2.76552 24.737 2.76576 24.7368C2.76599 24.7365 2.76623 24.7363 2.76647 24.736C2.76671 24.7357 2.76696 24.7355 2.76721 24.7352C2.76746 24.7349 2.76772 24.7346 2.76797 24.7344C2.76823 24.7341 2.7685 24.7338 2.76876 24.7335C2.76903 24.7332 2.7693 24.7329 2.76957 24.7326C2.76985 24.7323 2.77013 24.732 2.77041 24.7317C2.77069 24.7314 2.77098 24.7311 2.77127 24.7307C2.77156 24.7304 2.77186 24.7301 2.77216 24.7298C2.77246 24.7294 2.77276 24.7291 2.77307 24.7288C2.77337 24.7284 2.77369 24.7281 2.774 24.7277C2.77432 24.7274 2.77464 24.727 2.77496 24.7267C2.77528 24.7263 2.77561 24.726 2.77594 24.7256C2.77627 24.7253 2.77661 24.7249 2.77695 24.7245C2.77729 24.7241 2.77763 24.7238 2.77798 24.7234C2.77833 24.723 2.77868 24.7226 2.77903 24.7222C2.77939 24.7218 2.77975 24.7214 2.78011 24.721C2.78048 24.7206 2.78084 24.7202 2.78122 24.7198C2.78159 24.7194 2.78196 24.719 2.78234 24.7186C2.78272 24.7182 2.78311 24.7178 2.7835 24.7173C2.78388 24.7169 2.78428 24.7165 2.78467 24.716C2.78507 24.7156 2.78547 24.7152 2.78587 24.7147C2.78628 24.7143 2.78668 24.7138 2.7871 24.7134C2.78751 24.7129 2.78793 24.7125 2.78835 24.712C2.78877 24.7116 2.78919 24.7111 2.78962 24.7106C2.79005 24.7101 2.79048 24.7097 2.79092 24.7092C2.79135 24.7087 2.79179 24.7082 2.79224 24.7077C2.79268 24.7073 2.79313 24.7068 2.79358 24.7063C2.79404 24.7058 2.79449 24.7053 2.79495 24.7048C2.79541 24.7043 2.79588 24.7037 2.79635 24.7032C2.79682 24.7027 2.79729 24.7022 2.79777 24.7017C2.79824 24.7012 2.79873 24.7006 2.79921 24.7001C2.7997 24.6996 2.80018 24.699 2.80068 24.6985C2.80117 24.6979 2.80167 24.6974 2.80217 24.6969C2.80267 24.6963 2.80318 24.6957 2.80368 24.6952C2.80419 24.6946 2.80471 24.6941 2.80522 24.6935C2.80574 24.6929 2.80626 24.6924 2.80679 24.6918C2.80731 24.6912 2.80784 24.6906 2.80838 24.69C2.80891 24.6895 2.80945 24.6889 2.80999 24.6883C2.81053 24.6877 2.81108 24.6871 2.81163 24.6865C2.81218 24.6859 2.81273 24.6853 2.81329 24.6847C2.81385 24.684 2.81441 24.6834 2.81497 24.6828C2.81554 24.6822 2.81611 24.6816 2.81668 24.6809C2.81726 24.6803 2.81784 24.6797 2.81842 24.679C2.819 24.6784 2.81959 24.6777 2.82018 24.6771C2.82077 24.6765 2.82136 24.6758 2.82196 24.6751C2.82256 24.6745 2.82316 24.6738 2.82377 24.6732C2.82437 24.6725 2.82498 24.6718 2.8256 24.6712C2.82621 24.6705 2.82683 24.6698 2.82745 24.6691C2.82807 24.6684 2.8287 24.6678 2.82933 24.6671C2.82996 24.6664 2.8306 24.6657 2.83123 24.665C2.83187 24.6643 2.83252 24.6636 2.83316 24.6629C2.83381 24.6621 2.83446 24.6614 2.83511 24.6607C2.83577 24.66 2.83643 24.6593 2.83709 24.6585C2.83775 24.6578 2.83842 24.6571 2.83909 24.6564C2.83976 24.6556 2.84044 24.6549 2.84112 24.6541C2.8418 24.6534 2.84248 24.6526 2.84317 24.6519C2.84385 24.6511 2.84454 24.6504 2.84524 24.6496C2.84594 24.6488 2.84663 24.6481 2.84734 24.6473C2.84804 24.6465 2.84875 24.6458 2.84946 24.645C2.85017 24.6442 2.85089 24.6434 2.85161 24.6426C2.85233 24.6418 2.85305 24.641 2.85378 24.6402C2.8545 24.6395 2.85524 24.6386 2.85597 24.6378C2.85671 24.637 2.85745 24.6362 2.85819 24.6354C2.85893 24.6346 2.85968 24.6338 2.86043 24.6329C2.86119 24.6321 2.86194 24.6313 2.8627 24.6305C2.86346 24.6296 2.86422 24.6288 2.86499 24.6279C2.86576 24.6271 2.86653 24.6263 2.86731 24.6254C2.86809 24.6246 2.86887 24.6237 2.86965 24.6228C2.87043 24.622 2.87122 24.6211 2.87201 24.6202C2.87281 24.6194 2.8736 24.6185 2.8744 24.6176C2.8752 24.6167 2.87601 24.6159 2.87682 24.615C2.87762 24.6141 2.87844 24.6132 2.87925 24.6123C2.88007 24.6114 2.88089 24.6105 2.88171 24.6096C2.88254 24.6087 2.88337 24.6078 2.8842 24.6069C2.88503 24.606 2.88587 24.605 2.88671 24.6041C2.88755 24.6032 2.8884 24.6023 2.88924 24.6013C2.89009 24.6004 2.89095 24.5995 2.8918 24.5985C2.89266 24.5976 2.89352 24.5967 2.89439 24.5957C2.89525 24.5948 2.89612 24.5938 2.89699 24.5928C2.89787 24.5919 2.89874 24.5909 2.89962 24.59C2.90051 24.589 2.90139 24.588 2.90228 24.5871C2.90317 24.5861 2.90406 24.5851 2.90496 24.5841C2.90586 24.5831 2.90676 24.5821 2.90766 24.5811C2.90857 24.5802 2.90948 24.5792 2.91039 24.5782C2.91131 24.5772 2.91222 24.5761 2.91314 24.5751C2.91407 24.5741 2.91499 24.5731 2.91592 24.5721C2.91685 24.5711 2.91778 24.57 2.91872 24.569C2.91966 24.568 2.9206 24.567 2.92155 24.5659C2.92249 24.5649 2.92344 24.5638 2.9244 24.5628C2.92535 24.5617 2.92631 24.5607 2.92727 24.5596C2.92823 24.5586 2.9292 24.5575 2.93017 24.5565C2.93114 24.5554 2.93211 24.5543 2.93309 24.5533C2.93407 24.5522 2.93505 24.5511 2.93604 24.55C2.93702 24.5489 2.93801 24.5479 2.93901 24.5468C2.94 24.5457 2.941 24.5446 2.942 24.5435C2.94301 24.5424 2.94401 24.5413 2.94502 24.5402C2.94603 24.5391 2.94705 24.538 2.94807 24.5368C2.94909 24.5357 2.95011 24.5346 2.95113 24.5335C2.95216 24.5323 2.95319 24.5312 2.95423 24.5301C2.95526 24.5289 2.9563 24.5278 2.95734 24.5267C2.95839 24.5255 2.95943 24.5244 2.96048 24.5232C2.96153 24.5221 2.96259 24.5209 2.96365 24.5197C2.96471 24.5186 2.96577 24.5174 2.96684 24.5162C2.9679 24.5151 2.96898 24.5139 2.97005 24.5127C2.97113 24.5115 2.97221 24.5104 2.97329 24.5092C2.97437 24.508 2.97546 24.5068 2.97655 24.5056C2.97764 24.5044 2.97874 24.5032 2.97984 24.502C2.98094 24.5008 2.98204 24.4996 2.98315 24.4984C2.98425 24.4971 2.98537 24.4959 2.98648 24.4947C2.9876 24.4935 2.98872 24.4922 2.98984 24.491C2.99096 24.4898 2.99209 24.4885 2.99322 24.4873C2.99436 24.4861 2.99549 24.4848 2.99663 24.4836C2.99777 24.4823 2.99891 24.4811 3.00006 24.4798C3.00121 24.4785 3.00236 24.4773 3.00352 24.476C3.00467 24.4747 3.00583 24.4735 3.007 24.4722C3.00816 24.4709 3.00933 24.4696 3.0105 24.4684C3.01167 24.4671 3.01285 24.4658 3.01403 24.4645C3.01521 24.4632 3.0164 24.4619 3.01758 24.4606C3.01877 24.4593 3.01996 24.458 3.02116 24.4567C3.02236 24.4554 3.02356 24.454 3.02476 24.4527C3.02597 24.4514 3.02718 24.4501 3.02839 24.4487C3.0296 24.4474 3.03082 24.4461 3.03204 24.4447C3.03326 24.4434 3.03448 24.4421 3.03571 24.4407C3.03694 24.4394 3.03817 24.438 3.03941 24.4366C3.04065 24.4353 3.04189 24.4339 3.04313 24.4326C3.04438 24.4312 3.04563 24.4298 3.04688 24.4285C3.04813 24.4271 3.04939 24.4257 3.05065 24.4243C3.05191 24.4229 3.05318 24.4216 3.05445 24.4202C3.05572 24.4188 3.05699 24.4174 3.05827 24.416C3.05954 24.4146 3.06082 24.4132 3.06211 24.4118C3.0634 24.4103 3.06468 24.4089 3.06598 24.4075C3.06727 24.4061 3.06857 24.4047 3.06987 24.4032C3.07117 24.4018 3.07248 24.4004 3.07379 24.3989C3.0751 24.3975 3.07641 24.3961 3.07773 24.3946C3.07905 24.3932 3.08037 24.3917 3.08169 24.3903C3.08302 24.3888 3.08435 24.3874 3.08568 24.3859C3.08702 24.3844 3.08835 24.383 3.0897 24.3815C3.09104 24.38 3.09238 24.3785 3.09373 24.3771C3.09508 24.3756 3.09644 24.3741 3.0978 24.3726C3.09915 24.3711 3.10052 24.3696 3.10188 24.3681C3.10325 24.3666 3.10462 24.3651 3.10599 24.3636C3.10737 24.3621 3.10875 24.3606 3.11013 24.3591C3.11151 24.3576 3.1129 24.3561 3.11429 24.3545C3.11568 24.353 3.11707 24.3515 3.11847 24.3499C3.11987 24.3484 3.12127 24.3469 3.12268 24.3453C3.12409 24.3438 3.1255 24.3422 3.12691 24.3407C3.12833 24.3391 3.12974 24.3376 3.13117 24.336C3.13259 24.3345 3.13402 24.3329 3.13545 24.3313C3.13688 24.3297 3.13831 24.3282 3.13975 24.3266C3.14119 24.325 3.14263 24.3234 3.14408 24.3219C3.14553 24.3203 3.14698 24.3187 3.14843 24.3171C3.14989 24.3155 3.15135 24.3139 3.15281 24.3123C3.15427 24.3107 3.15574 24.3091 3.15721 24.3074C3.15868 24.3058 3.16016 24.3042 3.16164 24.3026C3.16312 24.301 3.1646 24.2993 3.16609 24.2977C3.16758 24.2961 3.16907 24.2944 3.17056 24.2928C3.17206 24.2912 3.17356 24.2895 3.17506 24.2879C3.17657 24.2862 3.17807 24.2846 3.17959 24.2829C3.1811 24.2813 3.18261 24.2796 3.18413 24.2779C3.18565 24.2763 3.18718 24.2746 3.1887 24.2729C3.19023 24.2712 3.19176 24.2696 3.1933 24.2679C3.19484 24.2662 3.19638 24.2645 3.19792 24.2628C3.19946 24.2611 3.20101 24.2594 3.20256 24.2577C3.20412 24.256 3.20567 24.2543 3.20723 24.2526C3.20879 24.2509 3.21036 24.2492 3.21192 24.2474C3.21349 24.2457 3.21507 24.244 3.21664 24.2423C3.21822 24.2405 3.2198 24.2388 3.22138 24.2371C3.22297 24.2353 3.22456 24.2336 3.22615 24.2318C3.22774 24.2301 3.22934 24.2283 3.23094 24.2266C3.23254 24.2248 3.23414 24.2231 3.23575 24.2213C3.23736 24.2195 3.23897 24.2178 3.24059 24.216C3.24221 24.2142 3.24383 24.2125 3.24545 24.2107C3.24708 24.2089 3.24871 24.2071 3.25034 24.2053C3.25197 24.2035 3.25361 24.2017 3.25525 24.1999C3.25689 24.1981 3.25854 24.1963 3.26019 24.1945C3.26183 24.1927 3.26349 24.1909 3.26514 24.1891C3.2668 24.1873 3.26846 24.1854 3.27013 24.1836C3.27179 24.1818 3.27346 24.1799 3.27514 24.1781C3.27681 24.1763 3.27849 24.1744 3.28017 24.1726C3.28185 24.1707 3.28354 24.1689 3.28523 24.167C3.28691 24.1652 3.28861 24.1633 3.29031 24.1615C3.292 24.1596 3.29371 24.1577 3.29541 24.1559C3.29712 24.154 3.29883 24.1521 3.30054 24.1502C3.30225 24.1484 3.30397 24.1465 3.30569 24.1446C3.30742 24.1427 3.30914 24.1408 3.31087 24.1389C3.3126 24.137 3.31434 24.1351 3.31607 24.1332C3.31781 24.1313 3.31955 24.1294 3.3213 24.1275C3.32305 24.1256 3.3248 24.1236 3.32655 24.1217C3.3283 24.1198 3.33006 24.1179 3.33182 24.1159C3.33359 24.114 3.33535 24.1121 3.33712 24.1101C3.33889 24.1082 3.34067 24.1062 3.34245 24.1043C3.34423 24.1023 3.34601 24.1004 3.34779 24.0984C3.34958 24.0965 3.35137 24.0945 3.35317 24.0925C3.35496 24.0906 3.35676 24.0886 3.35856 24.0866C3.36037 24.0846 3.36217 24.0827 3.36398 24.0807C3.36579 24.0787 3.36761 24.0767 3.36943 24.0747C3.37125 24.0727 3.37307 24.0707 3.3749 24.0687C3.37672 24.0667 3.37855 24.0647 3.38039 24.0627C3.38222 24.0607 3.38406 24.0586 3.38591 24.0566C3.38775 24.0546 3.3896 24.0526 3.39145 24.0505C3.3933 24.0485 3.39515 24.0465 3.39701 24.0444C3.39887 24.0424 3.40074 24.0404 3.4026 24.0383C3.40447 24.0363 3.40634 24.0342 3.40822 24.0322C3.41009 24.0301 3.41197 24.028 3.41386 24.026C3.41574 24.0239 3.41763 24.0218 3.41952 24.0198C3.42141 24.0177 3.42331 24.0156 3.42521 24.0135C3.42711 24.0114 3.42901 24.0093 3.43092 24.0073C3.43282 24.0052 3.43474 24.0031 3.43665 24.001C3.43857 23.9989 3.44049 23.9968 3.44241 23.9946C3.44434 23.9925 3.44626 23.9904 3.4482 23.9883C3.45013 23.9862 3.45206 23.9841 3.454 23.9819C3.45594 23.9798 3.45789 23.9777 3.45984 23.9755C3.46179 23.9734 3.46374 23.9713 3.46569 23.9691C3.46765 23.967 3.46961 23.9648 3.47157 23.9627C3.47354 23.9605 3.47551 23.9583 3.47748 23.9562C3.47945 23.954 3.48143 23.9519 3.48341 23.9497C3.48539 23.9475 3.48737 23.9453 3.48936 23.9432C3.49135 23.941 3.49334 23.9388 3.49534 23.9366C3.49734 23.9344 3.49934 23.9322 3.50134 23.93C3.50335 23.9278 3.50536 23.9256 3.50737 23.9234C3.50938 23.9212 3.5114 23.919 3.51342 23.9168C3.51544 23.9146 3.51747 23.9123 3.5195 23.9101C3.52153 23.9079 3.52356 23.9056 3.5256 23.9034C3.52763 23.9012 3.52967 23.8989 3.53172 23.8967C3.53376 23.8945 3.53581 23.8922 3.53787 23.89C3.53992 23.8877 3.54198 23.8854 3.54404 23.8832C3.5461 23.8809 3.54817 23.8787 3.55024 23.8764C3.5523 23.8741 3.55438 23.8718 3.55646 23.8696C3.55853 23.8673 3.56061 23.865 3.5627 23.8627C3.56479 23.8604 3.56688 23.8581 3.56897 23.8558C3.57106 23.8535 3.57316 23.8512 3.57526 23.8489C3.57736 23.8466 3.57947 23.8443 3.58158 23.842C3.58369 23.8397 3.5858 23.8374 3.58792 23.8351C3.59004 23.8327 3.59216 23.8304 3.59429 23.8281C3.59641 23.8257 3.59854 23.8234 3.60068 23.8211C3.60281 23.8187 3.60495 23.8164 3.60709 23.814C3.60924 23.8117 3.61138 23.8093 3.61353 23.807C3.61568 23.8046 3.61784 23.8022 3.61999 23.7999C3.62215 23.7975 3.62432 23.7951 3.62648 23.7928C3.62865 23.7904 3.63082 23.788 3.63299 23.7856C3.63517 23.7832 3.63735 23.7808 3.63953 23.7785C3.64171 23.7761 3.6439 23.7737 3.64609 23.7713C3.64828 23.7689 3.65048 23.7664 3.65267 23.764C3.65487 23.7616 3.65708 23.7592 3.65928 23.7568C3.66149 23.7544 3.6637 23.7519 3.66592 23.7495C3.66813 23.7471 3.67035 23.7447 3.67257 23.7422C3.6748 23.7398 3.67702 23.7373 3.67925 23.7349C3.68149 23.7324 3.68372 23.73 3.68596 23.7275C3.6882 23.7251 3.69044 23.7226 3.69269 23.7202C3.69494 23.7177 3.69719 23.7152 3.69944 23.7127C3.7017 23.7103 3.70396 23.7078 3.70622 23.7053C3.70849 23.7028 3.71075 23.7003 3.71302 23.6978C3.7153 23.6954 3.71757 23.6929 3.71985 23.6904C3.72213 23.6879 3.72441 23.6854 3.7267 23.6828C3.72899 23.6803 3.73128 23.6778 3.73358 23.6753C3.73587 23.6728 3.73817 23.6703 3.74048 23.6677C3.74278 23.6652 3.74509 23.6627 3.7474 23.6601C3.74971 23.6576 3.75203 23.6551 3.75435 23.6525C3.75667 23.65 3.75899 23.6474 3.76132 23.6449C3.76365 23.6423 3.76598 23.6398 3.76832 23.6372C3.77065 23.6346 3.77299 23.6321 3.77534 23.6295C3.77768 23.6269 3.78003 23.6244 3.78238 23.6218C3.78474 23.6192 3.78709 23.6166 3.78945 23.614C3.79181 23.6114 3.79418 23.6088 3.79655 23.6062C3.79892 23.6036 3.80129 23.601 3.80366 23.5984C3.80604 23.5958 3.80842 23.5932 3.81081 23.5906C3.81319 23.588 3.81558 23.5854 3.81797 23.5827C3.82037 23.5801 3.82276 23.5775 3.82516 23.5749C3.82756 23.5722 3.82997 23.5696 3.83238 23.5669C3.83479 23.5643 3.8372 23.5617 3.83962 23.559C3.84203 23.5564 3.84446 23.5537 3.84688 23.551C3.84931 23.5484 3.85174 23.5457 3.85417 23.543C3.8566 23.5404 3.85904 23.5377 3.86148 23.535C3.86392 23.5323 3.86637 23.5297 3.86882 23.527C3.87127 23.5243 3.87372 23.5216 3.87618 23.5189C3.87863 23.5162 3.8811 23.5135 3.88356 23.5108C3.88603 23.5081 3.8885 23.5054 3.89097 23.5027C3.89344 23.5 3.89592 23.4973 3.8984 23.4945C3.90089 23.4918 3.90337 23.4891 3.90586 23.4863C3.90835 23.4836 3.91084 23.4809 3.91334 23.4781C3.91584 23.4754 3.91834 23.4727 3.92085 23.4699C3.92335 23.4672 3.92586 23.4644 3.92838 23.4617C3.93089 23.4589 3.93341 23.4561 3.93593 23.4534C3.93846 23.4506 3.94098 23.4478 3.94351 23.4451C3.94604 23.4423 3.94858 23.4395 3.95111 23.4367C3.95365 23.4339 3.9562 23.4311 3.95874 23.4284C3.96129 23.4256 3.96384 23.4228 3.96639 23.42C3.96895 23.4172 3.97151 23.4144 3.97407 23.4115C3.97663 23.4087 3.9792 23.4059 3.98177 23.4031C3.98434 23.4003 3.98691 23.3975 3.98949 23.3946C3.99207 23.3918 3.99465 23.389 3.99724 23.3861C3.99983 23.3833 4.00242 23.3804 4.00501 23.3776C4.00761 23.3748 4.01021 23.3719 4.01281 23.369C4.01541 23.3662 4.01802 23.3633 4.02063 23.3605C4.02324 23.3576 4.02586 23.3547 4.02848 23.3519C4.0311 23.349 4.03372 23.3461 4.03635 23.3432C4.03897 23.3404 4.04161 23.3375 4.04424 23.3346C4.04688 23.3317 4.04952 23.3288 4.05216 23.3259C4.0548 23.323 4.05745 23.3201 4.0601 23.3172C4.06275 23.3143 4.06541 23.3114 4.06807 23.3084C4.07073 23.3055 4.07339 23.3026 4.07606 23.2997C4.07873 23.2968 4.0814 23.2938 4.08407 23.2909C4.08675 23.288 4.08943 23.285 4.09211 23.2821C4.0948 23.2791 4.09749 23.2762 4.10018 23.2732C4.10287 23.2703 4.10557 23.2673 4.10827 23.2644C4.11097 23.2614 4.11367 23.2584 4.11638 23.2555C4.11909 23.2525 4.1218 23.2495 4.12451 23.2465C4.12723 23.2436 4.12995 23.2406 4.13267 23.2376C4.1354 23.2346 4.13813 23.2316 4.14086 23.2286C4.14359 23.2256 4.14633 23.2226 4.14907 23.2196C4.15181 23.2166 4.15455 23.2136 4.1573 23.2106C4.16005 23.2076 4.1628 23.2045 4.16556 23.2015C4.16832 23.1985 4.17108 23.1955 4.17384 23.1924C4.17661 23.1894 4.17938 23.1864 4.18215 23.1833C4.18492 23.1803 4.1877 23.1772 4.19048 23.1742C4.19326 23.1711 4.19604 23.1681 4.19883 23.165C4.20162 23.162 4.20442 23.1589 4.20721 23.1558C4.21001 23.1528 4.21281 23.1497 4.21562 23.1466C4.21842 23.1435 4.22123 23.1405 4.22404 23.1374C4.22686 23.1343 4.22967 23.1312 4.23249 23.1281C4.23532 23.125 4.23814 23.1219 4.24097 23.1188C4.2438 23.1157 4.24663 23.1126 4.24947 23.1095C4.25231 23.1064 4.25515 23.1033 4.25799 23.1001C4.26084 23.097 4.26369 23.0939 4.26654 23.0908C4.2694 23.0876 4.27225 23.0845 4.27512 23.0814C4.27798 23.0782 4.28084 23.0751 4.28371 23.0719C4.28658 23.0688 4.28946 23.0656 4.29234 23.0625C4.29521 23.0593 4.2981 23.0562 4.30098 23.053C4.30387 23.0498 4.30676 23.0467 4.30965 23.0435C4.31255 23.0403 4.31544 23.0371 4.31835 23.0339C4.32125 23.0308 4.32415 23.0276 4.32706 23.0244C4.32997 23.0212 4.33289 23.018 4.33581 23.0148C4.33872 23.0116 4.34165 23.0084 4.34457 23.0052C4.3475 23.002 4.35043 22.9988 4.35336 22.9955C4.3563 22.9923 4.35924 22.9891 4.36218 22.9859C4.36512 22.9826 4.36807 22.9794 4.37102 22.9762C4.37397 22.9729 4.37693 22.9697 4.37988 22.9665C4.38284 22.9632 4.38581 22.96 4.38877 22.9567C4.39174 22.9535 4.39471 22.9502 4.39768 22.9469C4.40066 22.9437 4.40364 22.9404 4.40662 22.9371C4.4096 22.9339 4.41259 22.9306 4.41558 22.9273C4.41857 22.924 4.42157 22.9207 4.42457 22.9174C4.42757 22.9142 4.43057 22.9109 4.43358 22.9076C4.43658 22.9043 4.4396 22.901 4.44261 22.8977C4.44563 22.8943 4.44865 22.891 4.45167 22.8877C4.45469 22.8844 4.45772 22.8811 4.46075 22.8778C4.46378 22.8744 4.46682 22.8711 4.46986 22.8678C4.4729 22.8644 4.47594 22.8611 4.47899 22.8578C4.48204 22.8544 4.48509 22.8511 4.48814 22.8477C4.4912 22.8444 4.49426 22.841 4.49732 22.8376C4.50039 22.8343 4.50345 22.8309 4.50653 22.8276C4.5096 22.8242 4.51267 22.8208 4.51575 22.8174C4.51883 22.8141 4.52192 22.8107 4.52501 22.8073C4.52809 22.8039 4.53119 22.8005 4.53428 22.7971C4.53738 22.7937 4.54048 22.7903 4.54358 22.7869C4.54669 22.7835 4.54979 22.7801 4.55291 22.7767C4.55602 22.7733 4.55914 22.7699 4.56226 22.7664C4.56538 22.763 4.5685 22.7596 4.57163 22.7562C4.57476 22.7527 4.57789 22.7493 4.58103 22.7458C4.58416 22.7424 4.5873 22.739 4.59045 22.7355C4.59359 22.7321 4.59674 22.7286 4.59989 22.7252C4.60305 22.7217 4.6062 22.7182 4.60936 22.7148C4.61253 22.7113 4.61569 22.7078 4.61886 22.7044C4.62203 22.7009 4.6252 22.6974 4.62838 22.6939C4.63156 22.6904 4.63474 22.6869 4.63792 22.6834C4.64111 22.68 4.6443 22.6765 4.64749 22.673C4.65068 22.6694 4.65388 22.6659 4.65708 22.6624C4.66028 22.6589 4.66349 22.6554 4.6667 22.6519C4.66991 22.6484 4.67312 22.6448 4.67634 22.6413C4.67955 22.6378 4.68277 22.6343 4.686 22.6307C4.68923 22.6272 4.69246 22.6236 4.69569 22.6201C4.69892 22.6165 4.70216 22.613 4.7054 22.6094C4.70864 22.6059 4.71189 22.6023 4.71514 22.5988C4.71839 22.5952 4.72164 22.5916 4.7249 22.588C4.72816 22.5845 4.73142 22.5809 4.73469 22.5773C4.73795 22.5737 4.74122 22.5701 4.7445 22.5666C4.74777 22.563 4.75105 22.5594 4.75433 22.5558C4.75761 22.5522 4.7609 22.5486 4.76419 22.545C4.76748 22.5414 4.77077 22.5377 4.77407 22.5341C4.77737 22.5305 4.78067 22.5269 4.78398 22.5233C4.78728 22.5196 4.79059 22.516 4.79391 22.5124C4.79722 22.5087 4.80054 22.5051 4.80386 22.5014C4.80719 22.4978 4.81051 22.4942 4.81384 22.4905C4.81717 22.4868 4.82051 22.4832 4.82385 22.4795C4.82719 22.4759 4.83053 22.4722 4.83387 22.4685C4.83722 22.4649 4.84057 22.4612 4.84393 22.4575C4.84728 22.4538 4.85064 22.4501 4.854 22.4465C4.85737 22.4428 4.86073 22.4391 4.8641 22.4354C4.86748 22.4317 4.87085 22.428 4.87423 22.4243C4.87761 22.4206 4.88099 22.4169 4.88438 22.4131C4.88777 22.4094 4.89116 22.4057 4.89455 22.402C4.89795 22.3983 4.90135 22.3945 4.90475 22.3908C4.90815 22.3871 4.91156 22.3833 4.91497 22.3796C4.91838 22.3758 4.9218 22.3721 4.92522 22.3683C4.92864 22.3646 4.93206 22.3608 4.93549 22.3571C4.93892 22.3533 4.94235 22.3496 4.94578 22.3458C4.94922 22.342 4.95266 22.3382 4.9561 22.3345C4.95955 22.3307 4.96299 22.3269 4.96645 22.3231C4.9699 22.3193 4.97335 22.3156 4.97681 22.3118C4.98027 22.308 4.98374 22.3042 4.98721 22.3004C4.99067 22.2966 4.99415 22.2927 4.99762 22.2889C5.0011 22.2851 5.00458 22.2813 5.00806 22.2775C5.01155 22.2737 5.01503 22.2698 5.01853 22.266C5.02202 22.2622 5.02551 22.2583 5.02902 22.2545C5.03252 22.2507 5.03602 22.2468 5.03953 22.243C5.04304 22.2391 5.04655 22.2353 5.05007 22.2314C5.05358 22.2276 5.0571 22.2237 5.06063 22.2198C5.06415 22.216 5.06768 22.2121 5.07121 22.2082C5.07475 22.2043 5.07828 22.2005 5.08182 22.1966C5.08536 22.1927 5.08891 22.1888 5.09246 22.1849C5.09601 22.181 5.09956 22.1771 5.10312 22.1732C5.10667 22.1693 5.11023 22.1654 5.1138 22.1615C5.11736 22.1576 5.12093 22.1537 5.12451 22.1498C5.12808 22.1459 5.13166 22.1419 5.13524 22.138C5.13882 22.1341 5.1424 22.1301 5.14599 22.1262C5.14958 22.1223 5.15318 22.1183 5.15677 22.1144C5.16037 22.1104 5.16397 22.1065 5.16758 22.1025C5.17118 22.0986 5.17479 22.0946 5.17841 22.0907C5.18202 22.0867 5.18564 22.0827 5.18926 22.0788C5.19288 22.0748 5.19651 22.0708 5.20013 22.0668C5.20376 22.0628 5.2074 22.0589 5.21104 22.0549C5.21467 22.0509 5.21832 22.0469 5.22196 22.0429C5.22561 22.0389 5.22926 22.0349 5.23291 22.0309C5.23656 22.0269 5.24022 22.0229 5.24388 22.0188C5.24755 22.0148 5.25121 22.0108 5.25488 22.0068C5.25855 22.0028 5.26223 21.9987 5.26591 21.9947C5.26958 21.9907 5.27327 21.9866 5.27695 21.9826C5.28064 21.9785 5.28433 21.9745 5.28802 21.9704C5.29172 21.9664 5.29542 21.9623 5.29912 21.9583C5.30282 21.9542 5.30653 21.9501 5.31024 21.9461C5.31395 21.942 5.31766 21.9379 5.32138 21.9338C5.3251 21.9298 5.32882 21.9257 5.33255 21.9216C5.33628 21.9175 5.34001 21.9134 5.34374 21.9093C5.34748 21.9052 5.35121 21.9011 5.35496 21.897C5.3587 21.8929 5.36245 21.8888 5.3662 21.8847C5.36995 21.8806 5.3737 21.8765 5.37746 21.8723C5.38122 21.8682 5.38498 21.8641 5.38875 21.86C5.39252 21.8558 5.39629 21.8517 5.40007 21.8475C5.40384 21.8434 5.40762 21.8393 5.4114 21.8351C5.41519 21.831 5.41897 21.8268 5.42276 21.8226C5.42656 21.8185 5.43035 21.8143 5.43415 21.8102C5.43795 21.806 5.44175 21.8018 5.44556 21.7976C5.44937 21.7935 5.45318 21.7893 5.457 21.7851C5.46081 21.7809 5.46463 21.7767 5.46845 21.7725C5.47228 21.7683 5.47611 21.7641 5.47994 21.7599C5.48377 21.7557 5.48761 21.7515 5.49145 21.7473C5.49529 21.7431 5.49913 21.7389 5.50298 21.7347C5.50683 21.7305 5.51068 21.7262 5.51453 21.722C5.51839 21.7178 5.52225 21.7135 5.52611 21.7093C5.52998 21.7051 5.53385 21.7008 5.53772 21.6966C5.54159 21.6923 5.54547 21.6881 5.54935 21.6838C5.55323 21.6796 5.55711 21.6753 5.561 21.671C5.56489 21.6668 5.56878 21.6625 5.57268 21.6582C5.57657 21.654 5.58047 21.6497 5.58438 21.6454C5.58828 21.6411 5.59219 21.6368 5.5961 21.6325C5.60002 21.6282 5.60393 21.6239 5.60785 21.6196C5.61177 21.6153 5.6157 21.611 5.61963 21.6067C5.62356 21.6024 5.62749 21.5981 5.63143 21.5938C5.63536 21.5895 5.6393 21.5852 5.64325 21.5808C5.64719 21.5765 5.65114 21.5722 5.6551 21.5678C5.65905 21.5635 5.66301 21.5592 5.66697 21.5548C5.67093 21.5505 5.67489 21.5461 5.67886 21.5418C5.68283 21.5374 5.6868 21.5331 5.69078 21.5287C5.69476 21.5243 5.69874 21.52 5.70273 21.5156C5.70671 21.5112 5.7107 21.5068 5.71469 21.5025C5.71869 21.4981 5.72268 21.4937 5.72669 21.4893C5.73069 21.4849 5.73469 21.4805 5.7387 21.4761C5.74271 21.4717 5.74673 21.4673 5.75074 21.4629C5.75476 21.4585 5.75878 21.4541 5.76281 21.4497C5.76684 21.4453 5.77086 21.4409 5.7749 21.4364C5.77893 21.432 5.78297 21.4276 5.78701 21.4232C5.79105 21.4187 5.7951 21.4143 5.79915 21.4098C5.8032 21.4054 5.80725 21.401 5.81131 21.3965C5.81537 21.392 5.81943 21.3876 5.8235 21.3831C5.82757 21.3787 5.83164 21.3742 5.83571 21.3697C5.83978 21.3653 5.84386 21.3608 5.84794 21.3563C5.85203 21.3518 5.85611 21.3474 5.8602 21.3429C5.86429 21.3384 5.86839 21.3339 5.87249 21.3294C5.87659 21.3249 5.88069 21.3204 5.88479 21.3159C5.8889 21.3114 5.89301 21.3069 5.89713 21.3024C5.90124 21.2979 5.90536 21.2933 5.90948 21.2888C5.91361 21.2843 5.91773 21.2798 5.92186 21.2752C5.92599 21.2707 5.93013 21.2662 5.93427 21.2616L4.45636 19.9141C4.45222 19.9187 4.44808 19.9232 4.44395 19.9277C4.43982 19.9323 4.43569 19.9368 4.43157 19.9413C4.42745 19.9458 4.42333 19.9504 4.41922 19.9549C4.4151 19.9594 4.41099 19.9639 4.40688 19.9684C4.40278 19.9729 4.39867 19.9774 4.39458 19.9819C4.39048 19.9864 4.38638 19.9909 4.38229 19.9954C4.3782 19.9999 4.37412 20.0043 4.37003 20.0088C4.36595 20.0133 4.36187 20.0178 4.3578 20.0222C4.35372 20.0267 4.34965 20.0312 4.34559 20.0356C4.34152 20.0401 4.33746 20.0445 4.3334 20.049C4.32934 20.0534 4.32529 20.0579 4.32124 20.0623C4.31719 20.0668 4.31314 20.0712 4.3091 20.0756C4.30506 20.0801 4.30102 20.0845 4.29699 20.0889C4.29295 20.0934 4.28892 20.0978 4.2849 20.1022C4.28087 20.1066 4.27685 20.111 4.27283 20.1154C4.26881 20.1198 4.2648 20.1242 4.26079 20.1286C4.25678 20.133 4.25278 20.1374 4.24877 20.1418C4.24477 20.1462 4.24078 20.1506 4.23678 20.155C4.23279 20.1593 4.2288 20.1637 4.22481 20.1681C4.22083 20.1725 4.21685 20.1768 4.21287 20.1812C4.20889 20.1855 4.20492 20.1899 4.20095 20.1943C4.19698 20.1986 4.19302 20.203 4.18906 20.2073C4.18509 20.2117 4.18114 20.216 4.17718 20.2203C4.17323 20.2247 4.16928 20.229 4.16534 20.2333C4.16139 20.2376 4.15745 20.242 4.15351 20.2463C4.14958 20.2506 4.14564 20.2549 4.14172 20.2592C4.13779 20.2635 4.13386 20.2678 4.12994 20.2721C4.12602 20.2764 4.1221 20.2807 4.11819 20.285C4.11428 20.2893 4.11037 20.2936 4.10647 20.2979C4.10256 20.3022 4.09866 20.3064 4.09476 20.3107C4.09087 20.315 4.08698 20.3193 4.08309 20.3235C4.0792 20.3278 4.07531 20.3321 4.07143 20.3363C4.06755 20.3406 4.06368 20.3448 4.05981 20.3491C4.05593 20.3533 4.05207 20.3576 4.0482 20.3618C4.04434 20.366 4.04048 20.3703 4.03662 20.3745C4.03277 20.3787 4.02891 20.3829 4.02507 20.3872C4.02122 20.3914 4.01737 20.3956 4.01353 20.3998C4.00969 20.404 4.00586 20.4082 4.00203 20.4124C3.99819 20.4166 3.99437 20.4208 3.99054 20.425C3.98672 20.4292 3.9829 20.4334 3.97908 20.4376C3.97527 20.4418 3.97146 20.446 3.96765 20.4501C3.96384 20.4543 3.96004 20.4585 3.95624 20.4627C3.95244 20.4668 3.94864 20.471 3.94485 20.4751C3.94106 20.4793 3.93727 20.4835 3.93349 20.4876C3.92971 20.4918 3.92593 20.4959 3.92215 20.5C3.91838 20.5042 3.91461 20.5083 3.91084 20.5124C3.90707 20.5166 3.90331 20.5207 3.89955 20.5248C3.89579 20.5289 3.89204 20.5331 3.88829 20.5372C3.88454 20.5413 3.88079 20.5454 3.87705 20.5495C3.8733 20.5536 3.86956 20.5577 3.86583 20.5618C3.86209 20.5659 3.85836 20.57 3.85464 20.5741C3.85091 20.5782 3.84719 20.5823 3.84347 20.5863C3.83975 20.5904 3.83604 20.5945 3.83233 20.5986C3.82862 20.6026 3.82491 20.6067 3.82121 20.6108C3.8175 20.6148 3.81381 20.6189 3.81011 20.6229C3.80642 20.627 3.80273 20.631 3.79904 20.6351C3.79535 20.6391 3.79167 20.6431 3.78799 20.6472C3.78432 20.6512 3.78064 20.6552 3.77697 20.6593C3.7733 20.6633 3.76964 20.6673 3.76597 20.6713C3.76231 20.6753 3.75865 20.6794 3.755 20.6834C3.75135 20.6874 3.7477 20.6914 3.74405 20.6954C3.7404 20.6994 3.73676 20.7034 3.73312 20.7074C3.72949 20.7113 3.72585 20.7153 3.72222 20.7193C3.71859 20.7233 3.71497 20.7273 3.71135 20.7312C3.70772 20.7352 3.70411 20.7392 3.70049 20.7431C3.69688 20.7471 3.69327 20.7511 3.68967 20.755C3.68606 20.759 3.68246 20.7629 3.67886 20.7669C3.67526 20.7708 3.67167 20.7748 3.66808 20.7787C3.66449 20.7826 3.66091 20.7866 3.65733 20.7905C3.65374 20.7944 3.65017 20.7983 3.64659 20.8023C3.64302 20.8062 3.63945 20.8101 3.63589 20.814C3.63232 20.8179 3.62876 20.8218 3.6252 20.8257C3.62165 20.8296 3.61809 20.8335 3.61455 20.8374C3.611 20.8413 3.60745 20.8452 3.60391 20.8491C3.60037 20.853 3.59683 20.8568 3.5933 20.8607C3.58977 20.8646 3.58624 20.8685 3.58272 20.8723C3.57919 20.8762 3.57567 20.8801 3.57215 20.8839C3.56864 20.8878 3.56513 20.8916 3.56162 20.8955C3.55811 20.8993 3.5546 20.9032 3.5511 20.907C3.5476 20.9108 3.54411 20.9147 3.54061 20.9185C3.53712 20.9223 3.53363 20.9262 3.53015 20.93C3.52667 20.9338 3.52319 20.9376 3.51971 20.9414C3.51623 20.9452 3.51276 20.949 3.50929 20.9529C3.50583 20.9567 3.50236 20.9605 3.4989 20.9642C3.49544 20.968 3.49199 20.9718 3.48853 20.9756C3.48508 20.9794 3.48163 20.9832 3.47819 20.987C3.47475 20.9907 3.47131 20.9945 3.46787 20.9983C3.46444 21.002 3.461 21.0058 3.45758 21.0096C3.45415 21.0133 3.45073 21.0171 3.44731 21.0208C3.44389 21.0246 3.44047 21.0283 3.43706 21.0321C3.43365 21.0358 3.43024 21.0396 3.42684 21.0433C3.42343 21.047 3.42004 21.0507 3.41664 21.0545C3.41325 21.0582 3.40985 21.0619 3.40647 21.0656C3.40308 21.0693 3.3997 21.0731 3.39632 21.0768C3.39294 21.0805 3.38956 21.0842 3.38619 21.0879C3.38282 21.0916 3.37945 21.0953 3.37609 21.0989C3.37273 21.1026 3.36937 21.1063 3.36602 21.11C3.36266 21.1137 3.35931 21.1173 3.35596 21.121C3.35262 21.1247 3.34927 21.1284 3.34593 21.132C3.3426 21.1357 3.33926 21.1393 3.33593 21.143C3.3326 21.1466 3.32927 21.1503 3.32595 21.1539C3.32263 21.1576 3.31931 21.1612 3.316 21.1649C3.31268 21.1685 3.30937 21.1721 3.30607 21.1757C3.30276 21.1794 3.29946 21.183 3.29616 21.1866C3.29286 21.1902 3.28957 21.1938 3.28628 21.1975C3.28299 21.2011 3.2797 21.2047 3.27642 21.2083C3.27314 21.2119 3.26986 21.2155 3.26658 21.219C3.26331 21.2226 3.26004 21.2262 3.25677 21.2298C3.25351 21.2334 3.25025 21.237 3.24699 21.2405C3.24373 21.2441 3.24048 21.2477 3.23723 21.2512C3.23398 21.2548 3.23073 21.2584 3.22749 21.2619C3.22425 21.2655 3.22101 21.269 3.21778 21.2726C3.21454 21.2761 3.21131 21.2797 3.20809 21.2832C3.20486 21.2867 3.20164 21.2903 3.19842 21.2938C3.19521 21.2973 3.19199 21.3009 3.18878 21.3044C3.18557 21.3079 3.18237 21.3114 3.17917 21.3149C3.17597 21.3184 3.17277 21.3219 3.16958 21.3254C3.16638 21.3289 3.16319 21.3324 3.16001 21.3359C3.15682 21.3394 3.15364 21.3429 3.15047 21.3464C3.14729 21.3499 3.14412 21.3534 3.14095 21.3568C3.13778 21.3603 3.13461 21.3638 3.13145 21.3673C3.12829 21.3707 3.12514 21.3742 3.12198 21.3776C3.11883 21.3811 3.11568 21.3846 3.11254 21.388C3.10939 21.3915 3.10625 21.3949 3.10312 21.3983C3.09998 21.4018 3.09685 21.4052 3.09372 21.4086C3.09059 21.4121 3.08746 21.4155 3.08434 21.4189C3.08122 21.4223 3.07811 21.4258 3.075 21.4292C3.07188 21.4326 3.06877 21.436 3.06567 21.4394C3.06257 21.4428 3.05947 21.4462 3.05637 21.4496C3.05327 21.453 3.05018 21.4564 3.04709 21.4598C3.04401 21.4632 3.04092 21.4665 3.03784 21.4699C3.03476 21.4733 3.03169 21.4767 3.02861 21.48C3.02554 21.4834 3.02247 21.4868 3.01941 21.4901C3.01635 21.4935 3.01329 21.4969 3.01023 21.5002C3.00718 21.5036 3.00412 21.5069 3.00108 21.5103C2.99803 21.5136 2.99499 21.5169 2.99195 21.5203C2.98891 21.5236 2.98587 21.5269 2.98284 21.5303C2.97981 21.5336 2.97678 21.5369 2.97376 21.5402C2.97073 21.5435 2.96771 21.5468 2.9647 21.5501C2.96168 21.5535 2.95867 21.5568 2.95567 21.5601C2.95266 21.5634 2.94965 21.5666 2.94666 21.5699C2.94366 21.5732 2.94066 21.5765 2.93767 21.5798C2.93468 21.5831 2.93169 21.5863 2.92871 21.5896C2.92573 21.5929 2.92275 21.5962 2.91977 21.5994C2.9168 21.6027 2.91383 21.6059 2.91086 21.6092C2.90789 21.6125 2.90493 21.6157 2.90197 21.6189C2.89901 21.6222 2.89606 21.6254 2.89311 21.6287C2.89016 21.6319 2.88721 21.6351 2.88427 21.6384C2.88133 21.6416 2.87839 21.6448 2.87545 21.648C2.87252 21.6512 2.86959 21.6545 2.86666 21.6577C2.86374 21.6609 2.86081 21.6641 2.85789 21.6673C2.85498 21.6705 2.85206 21.6737 2.84915 21.6769C2.84624 21.6801 2.84334 21.6833 2.84043 21.6864C2.83753 21.6896 2.83463 21.6928 2.83174 21.696C2.82885 21.6991 2.82596 21.7023 2.82307 21.7055C2.82018 21.7086 2.8173 21.7118 2.81442 21.715C2.81155 21.7181 2.80867 21.7213 2.8058 21.7244C2.80293 21.7276 2.80007 21.7307 2.7972 21.7339C2.79434 21.737 2.79149 21.7401 2.78863 21.7433C2.78578 21.7464 2.78293 21.7495 2.78008 21.7526C2.77724 21.7558 2.7744 21.7589 2.77156 21.762C2.76872 21.7651 2.76589 21.7682 2.76306 21.7713C2.76023 21.7744 2.7574 21.7775 2.75458 21.7806C2.75176 21.7837 2.74894 21.7868 2.74613 21.7899C2.74332 21.793 2.74051 21.796 2.7377 21.7991C2.7349 21.8022 2.7321 21.8053 2.7293 21.8083C2.7265 21.8114 2.72371 21.8145 2.72092 21.8175C2.71813 21.8206 2.71535 21.8236 2.71257 21.8267C2.70979 21.8297 2.70701 21.8328 2.70424 21.8358C2.70146 21.8389 2.69869 21.8419 2.69593 21.8449C2.69317 21.848 2.6904 21.851 2.68765 21.854C2.68489 21.857 2.68214 21.8601 2.67939 21.8631C2.67664 21.8661 2.6739 21.8691 2.67116 21.8721C2.66842 21.8751 2.66568 21.8781 2.66295 21.8811C2.66022 21.8841 2.65749 21.8871 2.65476 21.8901C2.65204 21.8931 2.64932 21.896 2.6466 21.899C2.64389 21.902 2.64117 21.905 2.63847 21.908C2.63576 21.9109 2.63305 21.9139 2.63035 21.9168C2.62765 21.9198 2.62496 21.9228 2.62227 21.9257C2.61957 21.9287 2.61689 21.9316 2.6142 21.9346C2.61152 21.9375 2.60884 21.9404 2.60616 21.9434C2.60349 21.9463 2.60082 21.9492 2.59815 21.9522C2.59548 21.9551 2.59282 21.958 2.59016 21.9609C2.5875 21.9639 2.58484 21.9668 2.58219 21.9697C2.57954 21.9726 2.57689 21.9755 2.57425 21.9784C2.5716 21.9813 2.56896 21.9842 2.56633 21.9871C2.56369 21.99 2.56106 21.9928 2.55844 21.9957C2.55581 21.9986 2.55318 22.0015 2.55057 22.0044C2.54795 22.0072 2.54533 22.0101 2.54272 22.013C2.54011 22.0158 2.5375 22.0187 2.5349 22.0215C2.5323 22.0244 2.5297 22.0272 2.5271 22.0301C2.52451 22.0329 2.52192 22.0358 2.51933 22.0386C2.51674 22.0415 2.51416 22.0443 2.51158 22.0471C2.509 22.0499 2.50643 22.0528 2.50386 22.0556C2.50129 22.0584 2.49872 22.0612 2.49616 22.064C2.49359 22.0668 2.49104 22.0696 2.48848 22.0725C2.48593 22.0753 2.48338 22.0781 2.48083 22.0808C2.47828 22.0836 2.47574 22.0864 2.4732 22.0892C2.47066 22.092 2.46813 22.0948 2.4656 22.0975C2.46307 22.1003 2.46054 22.1031 2.45802 22.1059C2.4555 22.1086 2.45298 22.1114 2.45047 22.1141C2.44795 22.1169 2.44544 22.1197 2.44294 22.1224C2.44043 22.1252 2.43793 22.1279 2.43543 22.1306C2.43293 22.1334 2.43044 22.1361 2.42795 22.1388C2.42546 22.1416 2.42297 22.1443 2.42049 22.147C2.41801 22.1497 2.41553 22.1525 2.41306 22.1552C2.41059 22.1579 2.40812 22.1606 2.40565 22.1633C2.40318 22.166 2.40072 22.1687 2.39827 22.1714C2.39581 22.1741 2.39335 22.1768 2.39091 22.1795C2.38846 22.1822 2.38601 22.1848 2.38357 22.1875C2.38113 22.1902 2.37869 22.1929 2.37626 22.1955C2.37382 22.1982 2.37139 22.2009 2.36897 22.2035C2.36654 22.2062 2.36412 22.2088 2.36171 22.2115C2.35929 22.2141 2.35688 22.2168 2.35447 22.2194C2.35206 22.2221 2.34965 22.2247 2.34725 22.2273C2.34485 22.23 2.34245 22.2326 2.34006 22.2352C2.33767 22.2379 2.33528 22.2405 2.3329 22.2431C2.33051 22.2457 2.32813 22.2483 2.32575 22.2509C2.32338 22.2535 2.321 22.2561 2.31864 22.2587C2.31627 22.2613 2.3139 22.2639 2.31154 22.2665C2.30918 22.2691 2.30682 22.2717 2.30447 22.2743C2.30212 22.2768 2.29977 22.2794 2.29743 22.282C2.29508 22.2846 2.29274 22.2871 2.29041 22.2897C2.28807 22.2923 2.28574 22.2948 2.28341 22.2974C2.28108 22.2999 2.27876 22.3025 2.27644 22.305C2.27412 22.3076 2.2718 22.3101 2.26949 22.3126C2.26718 22.3152 2.26487 22.3177 2.26257 22.3202C2.26026 22.3228 2.25796 22.3253 2.25567 22.3278C2.25337 22.3303 2.25108 22.3328 2.24879 22.3353C2.2465 22.3378 2.24422 22.3404 2.24194 22.3429C2.23966 22.3454 2.23738 22.3478 2.23511 22.3503C2.23284 22.3528 2.23057 22.3553 2.22831 22.3578C2.22605 22.3603 2.22379 22.3628 2.22153 22.3652C2.21928 22.3677 2.21702 22.3702 2.21478 22.3726C2.21253 22.3751 2.21029 22.3776 2.20805 22.38C2.20581 22.3825 2.20357 22.3849 2.20134 22.3874C2.19911 22.3898 2.19688 22.3923 2.19466 22.3947C2.19244 22.3971 2.19022 22.3996 2.188 22.402C2.18579 22.4044 2.18358 22.4069 2.18137 22.4093C2.17916 22.4117 2.17696 22.4141 2.17476 22.4165C2.17256 22.4189 2.17037 22.4213 2.16818 22.4238C2.16599 22.4262 2.1638 22.4286 2.16162 22.4309C2.15944 22.4333 2.15726 22.4357 2.15508 22.4381C2.15291 22.4405 2.15074 22.4429 2.14857 22.4453C2.1464 22.4476 2.14424 22.45 2.14208 22.4524C2.13992 22.4547 2.13777 22.4571 2.13562 22.4595C2.13347 22.4618 2.13132 22.4642 2.12918 22.4665C2.12704 22.4689 2.1249 22.4712 2.12277 22.4736C2.12063 22.4759 2.1185 22.4782 2.11638 22.4806C2.11425 22.4829 2.11213 22.4852 2.11001 22.4875C2.10789 22.4899 2.10578 22.4922 2.10367 22.4945C2.10156 22.4968 2.09945 22.4991 2.09735 22.5014C2.09525 22.5037 2.09315 22.506 2.09106 22.5083C2.08896 22.5106 2.08687 22.5129 2.08479 22.5152C2.0827 22.5175 2.08062 22.5198 2.07854 22.5221C2.07647 22.5243 2.07439 22.5266 2.07232 22.5289C2.07025 22.5312 2.06819 22.5334 2.06613 22.5357C2.06407 22.5379 2.06201 22.5402 2.05996 22.5424C2.0579 22.5447 2.05585 22.5469 2.05381 22.5492C2.05176 22.5514 2.04972 22.5537 2.04768 22.5559C2.04565 22.5581 2.04361 22.5604 2.04158 22.5626C2.03956 22.5648 2.03753 22.567 2.03551 22.5693C2.03349 22.5715 2.03147 22.5737 2.02946 22.5759C2.02745 22.5781 2.02544 22.5803 2.02343 22.5825C2.02143 22.5847 2.01943 22.5869 2.01743 22.5891C2.01543 22.5913 2.01344 22.5935 2.01145 22.5956C2.00946 22.5978 2.00748 22.6 2.0055 22.6022C2.00352 22.6043 2.00154 22.6065 1.99957 22.6087C1.9976 22.6108 1.99563 22.613 1.99366 22.6152C1.9917 22.6173 1.98974 22.6195 1.98778 22.6216C1.98583 22.6238 1.98387 22.6259 1.98193 22.628C1.97998 22.6302 1.97803 22.6323 1.97609 22.6344C1.97415 22.6366 1.97222 22.6387 1.97028 22.6408C1.96835 22.6429 1.96642 22.645 1.9645 22.6471C1.96258 22.6493 1.96066 22.6514 1.95874 22.6535C1.95683 22.6556 1.95491 22.6577 1.95301 22.6597C1.9511 22.6618 1.94919 22.6639 1.94729 22.666C1.94539 22.6681 1.9435 22.6702 1.94161 22.6722C1.93972 22.6743 1.93783 22.6764 1.93594 22.6785C1.93406 22.6805 1.93218 22.6826 1.93031 22.6846C1.92843 22.6867 1.92656 22.6888 1.92469 22.6908C1.92282 22.6928 1.92096 22.6949 1.9191 22.6969C1.91724 22.699 1.91539 22.701 1.91354 22.703C1.91168 22.7051 1.90984 22.7071 1.90799 22.7091C1.90615 22.7111 1.90431 22.7132 1.90248 22.7152C1.90064 22.7172 1.89881 22.7192 1.89698 22.7212C1.89516 22.7232 1.89333 22.7252 1.89152 22.7272C1.8897 22.7292 1.88788 22.7312 1.88607 22.7332C1.88426 22.7351 1.88245 22.7371 1.88065 22.7391C1.87885 22.7411 1.87705 22.7431 1.87525 22.745C1.87346 22.747 1.87167 22.749 1.86988 22.7509C1.8681 22.7529 1.86631 22.7548 1.86454 22.7568C1.86276 22.7587 1.86098 22.7607 1.85921 22.7626C1.85744 22.7646 1.85568 22.7665 1.85391 22.7684C1.85215 22.7704 1.85039 22.7723 1.84864 22.7742C1.84688 22.7761 1.84513 22.7781 1.84339 22.78C1.84164 22.7819 1.8399 22.7838 1.83816 22.7857C1.83642 22.7876 1.83469 22.7895 1.83296 22.7914C1.83123 22.7933 1.8295 22.7952 1.82778 22.7971C1.82606 22.799 1.82434 22.8009 1.82263 22.8027C1.82091 22.8046 1.81921 22.8065 1.8175 22.8084C1.81579 22.8102 1.81409 22.8121 1.81239 22.814C1.8107 22.8158 1.809 22.8177 1.80731 22.8195C1.80562 22.8214 1.80394 22.8232 1.80226 22.8251C1.80058 22.8269 1.7989 22.8288 1.79722 22.8306C1.79555 22.8324 1.79388 22.8343 1.79222 22.8361C1.79055 22.8379 1.78889 22.8397 1.78723 22.8416C1.78558 22.8434 1.78392 22.8452 1.78227 22.847C1.78062 22.8488 1.77898 22.8506 1.77734 22.8524C1.7757 22.8542 1.77406 22.856 1.77243 22.8578C1.77079 22.8596 1.76917 22.8614 1.76754 22.8632C1.76592 22.8649 1.7643 22.8667 1.76268 22.8685C1.76106 22.8703 1.75945 22.872 1.75784 22.8738C1.75623 22.8756 1.75463 22.8773 1.75303 22.8791C1.75143 22.8808 1.74983 22.8826 1.74824 22.8843C1.74664 22.8861 1.74506 22.8878 1.74347 22.8896C1.74189 22.8913 1.74031 22.893 1.73873 22.8948C1.73715 22.8965 1.73558 22.8982 1.73401 22.8999C1.73244 22.9017 1.73088 22.9034 1.72932 22.9051C1.72776 22.9068 1.7262 22.9085 1.72465 22.9102C1.7231 22.9119 1.72155 22.9136 1.72001 22.9153C1.71846 22.917 1.71692 22.9187 1.71539 22.9204C1.71385 22.922 1.71232 22.9237 1.71079 22.9254C1.70926 22.9271 1.70774 22.9287 1.70622 22.9304C1.7047 22.9321 1.70319 22.9337 1.70167 22.9354C1.70016 22.9371 1.69865 22.9387 1.69715 22.9404C1.69565 22.942 1.69415 22.9437 1.69265 22.9453C1.69116 22.9469 1.68966 22.9486 1.68818 22.9502C1.68669 22.9518 1.68521 22.9535 1.68373 22.9551C1.68225 22.9567 1.68077 22.9583 1.6793 22.9599C1.67783 22.9616 1.67636 22.9632 1.6749 22.9648C1.67344 22.9664 1.67198 22.968 1.67052 22.9696C1.66907 22.9712 1.66762 22.9728 1.66617 22.9743C1.66472 22.9759 1.66328 22.9775 1.66184 22.9791C1.6604 22.9807 1.65897 22.9822 1.65754 22.9838C1.6561 22.9854 1.65468 22.9869 1.65326 22.9885C1.65183 22.9901 1.65041 22.9916 1.649 22.9932C1.64758 22.9947 1.64617 22.9963 1.64477 22.9978C1.64336 22.9994 1.64196 23.0009 1.64056 23.0024C1.63916 23.004 1.63777 23.0055 1.63638 23.007C1.63499 23.0085 1.6336 23.0101 1.63222 23.0116C1.63083 23.0131 1.62946 23.0146 1.62808 23.0161C1.62671 23.0176 1.62534 23.0191 1.62397 23.0206C1.62261 23.0221 1.62124 23.0236 1.61988 23.0251C1.61853 23.0266 1.61717 23.0281 1.61582 23.0296C1.61447 23.031 1.61313 23.0325 1.61178 23.034C1.61044 23.0355 1.60911 23.0369 1.60777 23.0384C1.60644 23.0399 1.60511 23.0413 1.60378 23.0428C1.60246 23.0442 1.60113 23.0457 1.59982 23.0471C1.5985 23.0486 1.59719 23.05 1.59588 23.0514C1.59457 23.0529 1.59326 23.0543 1.59196 23.0557C1.59066 23.0572 1.58936 23.0586 1.58807 23.06C1.58677 23.0614 1.58548 23.0628 1.5842 23.0642C1.58291 23.0657 1.58163 23.0671 1.58035 23.0685C1.57908 23.0699 1.5778 23.0713 1.57654 23.0727C1.57527 23.074 1.574 23.0754 1.57274 23.0768C1.57148 23.0782 1.57022 23.0796 1.56897 23.0809C1.56772 23.0823 1.56647 23.0837 1.56522 23.0851C1.56398 23.0864 1.56274 23.0878 1.5615 23.0891C1.56026 23.0905 1.55903 23.0919 1.5578 23.0932C1.55657 23.0945 1.55535 23.0959 1.55413 23.0972C1.55291 23.0986 1.55169 23.0999 1.55048 23.1012C1.54926 23.1026 1.54806 23.1039 1.54685 23.1052C1.54565 23.1065 1.54445 23.1078 1.54325 23.1092C1.54205 23.1105 1.54086 23.1118 1.53967 23.1131C1.53848 23.1144 1.5373 23.1157 1.53612 23.117C1.53494 23.1183 1.53376 23.1196 1.53259 23.1208C1.53142 23.1221 1.53025 23.1234 1.52909 23.1247C1.52792 23.126 1.52676 23.1272 1.52561 23.1285C1.52445 23.1298 1.5233 23.131 1.52215 23.1323C1.521 23.1336 1.51986 23.1348 1.51872 23.1361C1.51758 23.1373 1.51644 23.1386 1.51531 23.1398C1.51418 23.141 1.51305 23.1423 1.51193 23.1435C1.51081 23.1447 1.50969 23.146 1.50857 23.1472C1.50745 23.1484 1.50634 23.1496 1.50524 23.1509C1.50413 23.1521 1.50302 23.1533 1.50192 23.1545C1.50083 23.1557 1.49973 23.1569 1.49864 23.1581C1.49755 23.1593 1.49646 23.1605 1.49538 23.1617C1.49429 23.1629 1.49321 23.164 1.49214 23.1652C1.49106 23.1664 1.48999 23.1676 1.48893 23.1687C1.48786 23.1699 1.4868 23.1711 1.48574 23.1722C1.48468 23.1734 1.48362 23.1746 1.48257 23.1757C1.48152 23.1769 1.48047 23.178 1.47943 23.1792C1.47839 23.1803 1.47735 23.1814 1.47632 23.1826C1.47528 23.1837 1.47425 23.1848 1.47322 23.186C1.4722 23.1871 1.47117 23.1882 1.47016 23.1893C1.46914 23.1904 1.46812 23.1916 1.46711 23.1927C1.4661 23.1938 1.46509 23.1949 1.46409 23.196C1.46309 23.1971 1.46209 23.1982 1.4611 23.1993C1.4601 23.2004 1.45911 23.2014 1.45813 23.2025C1.45714 23.2036 1.45616 23.2047 1.45518 23.2058C1.4542 23.2068 1.45323 23.2079 1.45226 23.209C1.45129 23.21 1.45032 23.2111 1.44936 23.2121C1.4484 23.2132 1.44744 23.2142 1.44649 23.2153C1.44553 23.2163 1.44458 23.2174 1.44364 23.2184C1.44269 23.2194 1.44175 23.2205 1.44081 23.2215C1.43987 23.2225 1.43894 23.2236 1.43801 23.2246C1.43708 23.2256 1.43615 23.2266 1.43523 23.2276C1.43431 23.2286 1.43339 23.2296 1.43248 23.2306C1.43157 23.2316 1.43066 23.2326 1.42975 23.2336C1.42885 23.2346 1.42795 23.2356 1.42705 23.2366C1.42615 23.2376 1.42526 23.2386 1.42437 23.2395C1.42348 23.2405 1.42259 23.2415 1.42171 23.2425C1.42083 23.2434 1.41995 23.2444 1.41908 23.2453C1.41821 23.2463 1.41734 23.2473 1.41647 23.2482C1.41561 23.2492 1.41475 23.2501 1.41389 23.251C1.41303 23.252 1.41218 23.2529 1.41133 23.2538C1.41048 23.2548 1.40964 23.2557 1.4088 23.2566C1.40796 23.2575 1.40712 23.2585 1.40629 23.2594C1.40546 23.2603 1.40463 23.2612 1.4038 23.2621C1.40298 23.263 1.40216 23.2639 1.40134 23.2648C1.40052 23.2657 1.39971 23.2666 1.3989 23.2675C1.3981 23.2684 1.39729 23.2692 1.39649 23.2701C1.39569 23.271 1.39489 23.2719 1.3941 23.2727C1.39331 23.2736 1.39252 23.2745 1.39174 23.2753C1.39095 23.2762 1.39017 23.277 1.3894 23.2779C1.38862 23.2787 1.38785 23.2796 1.38708 23.2804C1.38631 23.2813 1.38555 23.2821 1.38479 23.283C1.38403 23.2838 1.38327 23.2846 1.38252 23.2854C1.38177 23.2863 1.38102 23.2871 1.38028 23.2879C1.37953 23.2887 1.3788 23.2895 1.37806 23.2903C1.37732 23.2911 1.37659 23.2919 1.37586 23.2927C1.37514 23.2935 1.37441 23.2943 1.37369 23.2951C1.37297 23.2959 1.37226 23.2967 1.37155 23.2975C1.37084 23.2983 1.37013 23.299 1.36943 23.2998C1.36872 23.3006 1.36802 23.3013 1.36733 23.3021C1.36663 23.3029 1.36594 23.3036 1.36525 23.3044C1.36457 23.3051 1.36388 23.3059 1.36321 23.3066C1.36253 23.3074 1.36185 23.3081 1.36118 23.3088C1.36051 23.3096 1.35984 23.3103 1.35918 23.311C1.35852 23.3118 1.35786 23.3125 1.3572 23.3132C1.35655 23.3139 1.3559 23.3146 1.35525 23.3153C1.3546 23.3161 1.35396 23.3168 1.35332 23.3175C1.35268 23.3182 1.35205 23.3189 1.35142 23.3196C1.35079 23.3202 1.35016 23.3209 1.34954 23.3216C1.34892 23.3223 1.3483 23.323 1.34768 23.3236C1.34707 23.3243 1.34646 23.325 1.34585 23.3257C1.34525 23.3263 1.34464 23.327 1.34405 23.3276C1.34345 23.3283 1.34285 23.3289 1.34226 23.3296C1.34167 23.3302 1.34109 23.3309 1.34051 23.3315C1.33992 23.3322 1.33935 23.3328 1.33877 23.3334C1.3382 23.3341 1.33763 23.3347 1.33706 23.3353C1.3365 23.3359 1.33593 23.3365 1.33538 23.3371C1.33482 23.3378 1.33427 23.3384 1.33372 23.339C1.33317 23.3396 1.33262 23.3402 1.33208 23.3408C1.33154 23.3414 1.331 23.3419 1.33047 23.3425C1.32993 23.3431 1.3294 23.3437 1.32888 23.3443C1.32835 23.3449 1.32783 23.3454 1.32731 23.346C1.3268 23.3466 1.32628 23.3471 1.32577 23.3477C1.32526 23.3482 1.32476 23.3488 1.32426 23.3493C1.32376 23.3499 1.32326 23.3504 1.32277 23.351C1.32227 23.3515 1.32178 23.3521 1.3213 23.3526C1.32081 23.3531 1.32033 23.3536 1.31986 23.3542C1.31938 23.3547 1.31891 23.3552 1.31844 23.3557C1.31797 23.3562 1.3175 23.3568 1.31704 23.3573C1.31658 23.3578 1.31612 23.3583 1.31567 23.3588C1.31522 23.3593 1.31477 23.3597 1.31433 23.3602C1.31388 23.3607 1.31344 23.3612 1.313 23.3617C1.31257 23.3622 1.31214 23.3626 1.31171 23.3631C1.31128 23.3636 1.31085 23.364 1.31043 23.3645C1.31001 23.365 1.3096 23.3654 1.30918 23.3659C1.30877 23.3663 1.30836 23.3668 1.30796 23.3672C1.30756 23.3677 1.30716 23.3681 1.30676 23.3685C1.30636 23.369 1.30597 23.3694 1.30558 23.3698C1.3052 23.3702 1.30481 23.3707 1.30443 23.3711C1.30405 23.3715 1.30368 23.3719 1.3033 23.3723C1.30293 23.3727 1.30256 23.3731 1.3022 23.3735C1.30184 23.3739 1.30148 23.3743 1.30112 23.3747C1.30077 23.3751 1.30041 23.3755 1.30007 23.3759C1.29972 23.3763 1.29938 23.3766 1.29904 23.377C1.2987 23.3774 1.29836 23.3777 1.29803 23.3781C1.2977 23.3785 1.29737 23.3788 1.29705 23.3792C1.29672 23.3795 1.2964 23.3799 1.29609 23.3802C1.29577 23.3806 1.29546 23.3809 1.29516 23.3813C1.29485 23.3816 1.29455 23.3819 1.29425 23.3823C1.29395 23.3826 1.29365 23.3829 1.29336 23.3832C1.29307 23.3835 1.29278 23.3839 1.2925 23.3842C1.29222 23.3845 1.29194 23.3848 1.29166 23.3851C1.29139 23.3854 1.29112 23.3857 1.29085 23.386C1.29058 23.3863 1.29032 23.3866 1.29006 23.3868C1.2898 23.3871 1.28955 23.3874 1.2893 23.3877C1.28905 23.388 1.2888 23.3882 1.28856 23.3885C1.28832 23.3888 1.28808 23.389 1.28784 23.3893C1.28761 23.3895 1.28738 23.3898 1.28715 23.39C1.28693 23.3903 1.2867 23.3905 1.28649 23.3908C1.28627 23.391 1.28605 23.3912 1.28584 23.3915C1.28563 23.3917 1.28543 23.3919 1.28522 23.3922C1.28502 23.3924 1.28482 23.3926 1.28463 23.3928C1.28444 23.393 1.28425 23.3932 1.28406 23.3934C1.28387 23.3936 1.28369 23.3938 1.28351 23.394C1.28334 23.3942 1.28316 23.3944 1.28299 23.3946C1.28282 23.3948 1.28266 23.395 1.2825 23.3951C1.28233 23.3953 1.28218 23.3955 1.28202 23.3957C1.28187 23.3958 1.28172 23.396 1.28157 23.3962C1.28143 23.3963 1.28129 23.3965 1.28115 23.3966C1.28101 23.3968 1.28088 23.3969 1.28075 23.3971C1.28062 23.3972 1.2805 23.3973 1.28037 23.3975C1.28025 23.3976 1.28014 23.3977 1.28002 23.3979C1.27991 23.398 1.2798 23.3981 1.27969 23.3982C1.27959 23.3983 1.27949 23.3984 1.27939 23.3985C1.27929 23.3987 1.2792 23.3988 1.27911 23.3989C1.27902 23.399 1.27894 23.399 1.27886 23.3991C1.27878 23.3992 1.2787 23.3993 1.27863 23.3994C1.27856 23.3995 1.27849 23.3995 1.27842 23.3996C1.27836 23.3997 1.2783 23.3998 1.27824 23.3998C1.27818 23.3999 1.27813 23.3999 1.27808 23.4C1.27803 23.4 1.27799 23.4001 1.27795 23.4001C1.27791 23.4002 1.27787 23.4002 1.27784 23.4003C1.27781 23.4003 1.27778 23.4003 1.27775 23.4003C1.27773 23.4004 1.27771 23.4004 1.27769 23.4004C1.27768 23.4004 1.27767 23.4004 1.27766 23.4005C1.27765 23.4005 1.27765 23.4005 2.0166 24.0742ZM5.94603 21.2485C6.90478 20.159 7.93618 19.2043 9.03986 18.382L7.8449 16.7782C6.62437 17.6876 5.49106 18.7381 4.4446 19.9273L5.94603 21.2485ZM9.03137 18.3882C22.3513 8.68046 35.784 3.50467 49.3399 2.78767L49.2343 0.790458C35.2186 1.53179 21.4215 6.88334 7.8534 16.7719L9.03137 18.3882ZM49.3458 2.78734C51.2761 2.67379 52.7571 2.61816 53.7988 2.61816V0.618164C52.6986 0.618164 51.1719 0.676466 49.2284 0.790788L49.3458 2.78734ZM53.7988 2.61816C54.7831 2.61816 55.4842 2.76669 55.9617 2.99723L56.8312 1.19613C55.9872 0.788645 54.9565 0.618164 53.7988 0.618164V2.61816ZM55.9989 3.01424C56.593 3.27168 57.1643 3.62108 57.7131 4.0682L58.9764 2.51773C58.2947 1.96225 57.5672 1.51413 56.7941 1.17912L55.9989 3.01424ZM57.7308 4.08232C58.2952 4.52131 58.8319 5.02583 59.3405 5.59796L60.8353 4.26923C60.2501 3.61089 59.6247 3.02166 58.9587 2.50362L57.7308 4.08232ZM59.3531 5.61187C59.872 6.17402 60.3205 6.73025 60.7012 7.28015L62.3456 6.14173C61.906 5.50673 61.3975 4.87807 60.8227 4.25531L59.3531 5.61187ZM60.7107 7.29363C61.1282 7.87593 61.4211 8.34545 61.6055 8.70953C61.6973 8.89073 61.755 9.03167 61.7885 9.13641C61.8232 9.24526 61.8223 9.28561 61.8223 9.27441H63.8223C63.8223 8.7805 63.6236 8.26754 63.3896 7.8056C63.1411 7.31519 62.7845 6.75363 62.3361 6.12825L60.7107 7.29363ZM61.8223 9.27441C61.8223 9.64685 61.7447 10.138 61.5568 10.7644L63.4725 11.3391C63.6947 10.5983 63.8223 9.90458 63.8223 9.27441H61.8223ZM61.5596 10.7554C61.358 11.4051 61.1218 12.1248 60.8509 12.9149L62.7428 13.5636C63.0188 12.7587 63.2612 12.0201 63.4697 11.3482L61.5596 10.7554ZM60.8539 12.9064C60.5863 13.6647 60.2962 14.4235 59.9835 15.1827L61.8329 15.9442C62.1583 15.154 62.4606 14.3633 62.7399 13.5721L60.8539 12.9064ZM59.9732 15.2088L59.2213 17.1912L61.0912 17.9006L61.8432 15.9181L59.9732 15.2088ZM59.2237 17.185C55.8487 25.9054 51.8411 34.0897 47.2016 41.7392L48.9117 42.7764C53.6146 35.0222 57.6734 26.7319 61.0888 17.9068L59.2237 17.185ZM47.1998 41.7422C45.6574 44.3053 44.3793 46.2537 43.3617 47.603L44.9586 48.8072C46.0374 47.3765 47.3569 45.3601 48.9135 42.7734L47.1998 41.7422ZM43.3509 47.6177C42.3322 49.0212 41.4815 50.1285 40.796 50.9466L42.329 52.2311C43.0563 51.3631 43.9373 50.2145 44.9695 48.7925L43.3509 47.6177ZM40.7857 50.9591C40.122 51.7776 39.4015 52.587 38.6238 53.3869L40.0578 54.7811C40.8751 53.9404 41.6358 53.0863 42.3393 52.2187L40.7857 50.9591ZM38.6238 53.3869C37.8559 54.1768 37.0323 54.9236 36.1526 55.6273L37.402 57.1891C38.3453 56.4344 39.2307 55.6318 40.0578 54.7811L38.6238 53.3869ZM36.141 55.6368C35.2665 56.3583 34.3738 56.9893 33.4631 57.5313L34.4861 59.2499C35.4895 58.6527 36.4653 57.962 37.4137 57.1796L36.141 55.6368ZM33.4684 57.5282C31.4969 58.6854 29.5962 59.2363 27.7539 59.2363V61.2363C30.0131 61.2363 32.2596 60.5568 34.4808 59.253L33.4684 57.5282ZM27.7539 59.2363C26.7288 59.2363 25.4033 58.6889 23.7437 57.3131L22.4673 58.8529C24.2712 60.3483 26.0446 61.2363 27.7539 61.2363V59.2363ZM23.7475 57.3164C22.0337 55.881 21.3711 54.5856 21.3711 53.4346H19.3711C19.3711 55.428 20.5314 57.2316 22.4634 58.8497L23.7475 57.3164ZM21.3711 53.4346C21.3711 52.4567 21.8627 51.0904 23.0733 49.2828C24.268 47.4989 26.0868 45.3965 28.557 42.9714L27.1559 41.5442C24.6359 44.0182 22.712 46.2281 21.4116 48.1699C20.1271 50.0878 19.3711 51.8604 19.3711 53.4346H21.3711ZM28.5573 42.9711C31.1564 40.4172 33.5025 38.3649 35.5973 36.805L34.4027 35.2009C32.2136 36.8311 29.7974 38.9487 27.1556 41.5445L28.5573 42.9711ZM35.6027 36.8009C37.7446 35.183 39.2551 34.1195 40.1599 33.581L39.137 31.8624C38.1277 32.4631 36.5392 33.5871 34.3973 35.205L35.6027 36.8009ZM40.5325 33.189C44.1065 26.428 46.316 22.17 47.1466 20.4396L45.3436 19.5741C44.5336 21.2616 42.3453 25.4802 38.7644 32.2543L40.5325 33.189ZM47.1499 20.4326L49.064 16.3653L47.2544 15.5137L45.3403 19.581L47.1499 20.4326ZM49.0706 16.351C49.5525 15.2839 49.9211 14.4163 50.1711 13.7555C50.2959 13.4258 50.3961 13.1345 50.4665 12.8881C50.5299 12.6662 50.5947 12.3965 50.5947 12.1455H48.5947C48.5947 12.0996 48.5997 12.1418 48.5435 12.3386C48.4943 12.5109 48.4151 12.7451 48.3006 13.0477C48.0721 13.6516 47.7229 14.4759 47.2478 15.5279L49.0706 16.351ZM50.5947 12.1455C50.5947 11.4616 50.4093 10.7694 49.8685 10.2624C49.3399 9.76683 48.6396 9.60742 47.9541 9.60742V11.6074C48.3623 11.6074 48.4824 11.7044 48.5006 11.7215C48.5067 11.7272 48.5947 11.8041 48.5947 12.1455H50.5947ZM47.9541 9.60742C46.7182 9.60742 45.2087 9.90025 43.4568 10.4375L44.0432 12.3496C45.7093 11.8387 47.0025 11.6074 47.9541 11.6074V9.60742ZM43.4568 10.4375C41.6959 10.9775 39.8183 11.7132 37.8253 12.6402L38.6688 14.4536C40.5951 13.5577 42.3861 12.8578 44.0432 12.3496L43.4568 10.4375ZM37.8341 12.6361C35.843 13.5391 33.7762 14.6016 31.6338 15.8226L32.624 17.5602C34.7199 16.3658 36.7318 15.332 38.6601 14.4576L37.8341 12.6361ZM31.6368 15.8208C29.5197 17.0175 27.4374 18.2945 25.3898 19.6519L26.4949 21.3188C28.5034 19.9874 30.5454 18.7351 32.621 17.562L31.6368 15.8208ZM25.3921 19.6504C23.3679 20.9845 21.4232 22.3653 19.5582 23.7928L20.7738 25.381C22.6002 23.983 24.5065 22.6294 26.4927 21.3203L25.3921 19.6504ZM19.5534 23.7965C17.7106 25.2247 16.0685 26.6119 14.6293 27.9582L15.9957 29.4187C17.382 28.1218 18.9756 26.7746 20.7786 25.3773L19.5534 23.7965ZM14.6327 27.9551C13.049 29.4231 11.797 30.7478 10.8953 31.9259C10.0076 33.086 9.39418 34.187 9.20284 35.2025L11.1683 35.5728C11.2731 35.0162 11.6624 34.2145 12.4836 33.1414C13.2909 32.0866 14.4542 30.8477 15.9923 29.4218L14.6327 27.9551ZM9.20683 35.1825C8.98502 36.2403 8.36862 36.9757 7.21905 37.4318L7.95674 39.2908C9.67825 38.6077 10.7936 37.3606 11.1643 35.5929L9.20683 35.1825Z" fill="black"/>
</svg>
