<svg width="62" height="60" viewBox="0 0 62 60" fill="none" xmlns="http://www.w3.org/2000/svg">
<path d="M6.58789 37.3613C6.17773 37.5436 5.71061 37.6348 5.18652 37.6348C4.68522 37.6348 4.11556 37.2702 3.47754 36.541C2.8623 35.8118 2.30404 34.9004 1.80273 33.8066C0.708984 31.3457 0.162109 28.9417 0.162109 26.5947C0.162109 25.1136 0.44694 23.9401 1.0166 23.0742C1.0166 23.0742 2.07617 21.9121 4.19531 19.5879C5.19792 18.4486 6.28027 17.446 7.44238 16.5801C20.8864 6.7819 34.5013 1.51823 48.2871 0.789062C50.224 0.67513 51.7279 0.618164 52.7988 0.618164C53.8698 0.618164 54.7357 0.777669 55.3965 1.09668C56.0801 1.3929 56.7295 1.79167 57.3447 2.29297C57.96 2.77148 58.541 3.31836 59.0879 3.93359C59.6348 4.52604 60.1133 5.11849 60.5234 5.71094C61.3893 6.91862 61.8223 7.77311 61.8223 8.27441C61.8223 8.77572 61.7197 9.36816 61.5146 10.0518C61.3096 10.7126 61.0703 11.4417 60.7969 12.2393C60.5234 13.014 60.2272 13.7887 59.9082 14.5635L59.1562 16.5459C55.7611 25.3187 51.7279 33.556 47.0566 41.2578C45.5072 43.8327 44.2083 45.8151 43.1602 47.2051C42.1348 48.6178 41.2689 49.7458 40.5625 50.5889C39.8789 51.432 39.1383 52.2637 38.3408 53.084C37.5433 53.9043 36.6888 54.679 35.7773 55.4082C34.8659 56.1602 33.9316 56.821 32.9746 57.3906C30.8783 58.6211 28.8047 59.2363 26.7539 59.2363C25.3867 59.2363 23.8372 58.5186 22.1055 57.083C20.2826 55.5563 19.3711 54.0068 19.3711 52.4346C19.3711 49.8825 21.8662 46.1569 26.8564 41.2578C29.4769 38.6829 31.8581 36.598 34 35.0029C36.1419 33.3851 37.6914 32.2913 38.6484 31.7217C42.2259 24.9541 44.4248 20.7158 45.2451 19.0068L47.1592 14.9395C48.1162 12.8203 48.5947 11.5557 48.5947 11.1455C48.5947 10.1201 48.0479 9.60742 46.9541 9.60742C45.8604 9.60742 44.459 9.86947 42.75 10.3936C41.041 10.9176 39.2067 11.6354 37.2471 12.5469C35.2874 13.4355 33.248 14.4837 31.1289 15.6914C29.0326 16.8763 26.9704 18.141 24.9424 19.4854C22.9372 20.807 21.0117 22.1742 19.166 23.5869C17.3431 24.9997 15.7253 26.3669 14.3125 27.6885C11.1908 30.5824 9.48177 32.8154 9.18555 34.3877C8.88932 35.8005 8.02344 36.7917 6.58789 37.3613Z" fill="black"/>
</svg>
