<svg width="18" height="18" viewBox="0 0 18 18" fill="none" xmlns="http://www.w3.org/2000/svg">
<path d="M0 15.6791C0 16.961 1.03915 18 2.32095 18H15.679C16.961 18 18 16.9609 18 15.6791V2.32102C18 1.03901 16.9609 0 15.6791 0H2.32102C1.03901 0 0 1.03915 0 2.32095V15.679V15.6791Z" fill="#706DFF"/>
<path d="M7.46423 7.96205V5.41301H9.70798C9.92173 5.41301 10.1277 5.4308 10.3262 5.46645C10.5246 5.50202 10.7002 5.56559 10.8528 5.6572C11.0054 5.74882 11.1275 5.87602 11.2191 6.03879C11.3107 6.20163 11.3565 6.41025 11.3565 6.66457C11.3565 7.12252 11.2191 7.45327 10.9444 7.65675C10.6696 7.8603 10.3186 7.96205 9.89114 7.96205H7.46423V7.96205ZM5.06777 3.55078V14.4492H10.3491C10.8375 14.4492 11.3133 14.3882 11.7763 14.2661C12.2393 14.1439 12.6514 13.9557 13.0127 13.7013C13.3739 13.4469 13.6614 13.1187 13.875 12.7168C14.0888 12.3148 14.1956 11.8391 14.1956 11.2896C14.1956 10.6078 14.0302 10.0252 13.6995 9.5419C13.3688 9.0585 12.8676 8.72016 12.196 8.5268C12.6844 8.2928 13.0534 7.99256 13.3027 7.62623C13.552 7.25991 13.6766 6.80203 13.6766 6.25247C13.6766 5.74369 13.5927 5.31633 13.4248 4.97032C13.2569 4.62438 13.0203 4.34707 12.715 4.13845C12.4097 3.92984 12.0434 3.77972 11.616 3.68817C11.1886 3.59655 10.7154 3.55078 10.1964 3.55078H5.06777V3.55078ZM7.46423 12.587V9.59527H10.0743C10.5933 9.59527 11.0105 9.7148 11.326 9.954C11.6414 10.1931 11.7992 10.5925 11.7992 11.1522C11.7992 11.4372 11.7508 11.6712 11.6542 11.8543C11.5575 12.0375 11.4277 12.1826 11.2649 12.2894C11.1021 12.3962 10.9138 12.4725 10.7002 12.5184C10.4864 12.5641 10.2626 12.587 10.0285 12.587H7.46423V12.587Z" fill="white"/>
</svg>
