<svg width="12" height="18" viewBox="0 0 12 18" fill="none" xmlns="http://www.w3.org/2000/svg">
<path d="M2.99442 18C4.64735 18 5.98885 16.656 5.98885 15V12H2.99442C1.3415 12 0 13.344 0 15C0 16.656 1.3415 18 2.99442 18Z" fill="#0ACF83"/>
<path d="M0 9C0 7.344 1.3415 6 2.99442 6H5.98885V12H2.99442C1.3415 12 0 10.656 0 9Z" fill="#A259FF"/>
<path d="M0 3C0 1.344 1.3415 0 2.99442 0H5.98885V6H2.99442C1.3415 6 0 4.656 0 3Z" fill="#F24E1E"/>
<path d="M5.98885 0H8.98327C10.6362 0 11.9777 1.344 11.9777 3C11.9777 4.656 10.6362 6 8.98327 6H5.98885V0Z" fill="#FF7262"/>
<path d="M11.9777 9C11.9777 10.656 10.6362 12 8.98327 12C7.33035 12 5.98885 10.656 5.98885 9C5.98885 7.344 7.33035 6 8.98327 6C10.6362 6 11.9777 7.344 11.9777 9Z" fill="#1ABCFE"/>
</svg>
